<svg xmlns="http://www.w3.org/2000/svg" xmlns:xlink="http://www.w3.org/1999/xlink" width="293" height="150" viewBox="0 0 293 150">
  <defs>
    <polygon id="loader_cat-a" points="0 149.202 292.268 149.202 292.268 .176 0 .176"/>
  </defs>
  <g fill="none" fill-rule="evenodd">
    <g transform="translate(0 .622)">
      <path stroke="#D2A68B" stroke-linecap="round" stroke-linejoin="round" stroke-width="1.6" d="M78.7347839,89.0703989 C77.8181582,86.5555053 74.600762,82.9475266 73.0084751,81.1610904 C63.4459478,70.4321011 54.9145243,71.1836968 42.3899751,72.7491223 C32.3118959,74.0089628 25.7241992,66.1028457 15.474803,67.9730585 C14.9200243,68.0743883 14.5021391,68.5539096 14.5229533,69.1156117 C14.8071473,76.6834309 18.0829833,82.7935372 23.8925489,87.2703989 C24.3728768,87.6406117 24.48015,88.3028457 24.1471227,88.8078989 C21.8567593,92.2770479 20.5550708,96.2879521 19.6288385,100.31641 C19.3814697,101.391941 19.3534505,102.515346 19.1917402,103.606037 C19.0700571,104.419069 19.0500434,105.85125 18.3047347,106.363484 C18.000527,106.572527 17.612262,106.604441 17.2440107,106.635559 C14.7519096,106.843803 12.2838249,107.328112 9.8973959,108.073324 C7.70710082,108.757899 5.40953251,109.425718 3.53065,110.790878 C2.36665546,111.636622 -0.190289891,114.120399 1.20826475,115.513484 C2.94865273,117.246463 5.08611175,118.70258 7.22357077,119.899388 C9.31219645,121.068271 11.6201719,122.004973 14.0162074,122.275452 C15.8110325,122.478112 18.8130817,122.355239 19.2934096,123.185027 C19.5960161,123.708431 19.6312402,124.337952 19.8625981,124.896463 C20.2076336,125.730239 20.6399287,126.534495 21.197109,127.24859 C22.3563003,128.733431 23.7100243,129.995665 25.1918358,131.158165 C30.8973303,135.634229 37.8220571,138.552846 45.0181691,139.514282 C52.4112156,140.502048 59.8282784,139.294867 66.7417975,136.630771"/>
      <path fill="#D2A68B" d="M49.2200773 94.5121277C48.9959243 96.4373936 47.2483314 97.8169149 45.3166128 97.5927128 43.3848943 97.3685106 42.00155 95.6267553 42.225703 93.7022872 42.449856 91.7770213 44.1982495 90.3982979 46.1291675 90.6217021 48.0608861 90.8451064 49.4442303 92.5876596 49.2200773 94.5121277M40.6505478 119.871064C40.4263948 121.795532 38.6788019 123.175053 36.7470833 122.950851 34.8153648 122.727447 33.4320205 120.985691 33.6561735 119.060426 33.8803265 117.135957 35.6287199 115.757234 37.559638 115.980638 39.4913566 116.204043 40.8747008 117.945798 40.6505478 119.871064"/>
      <path stroke="#D2A68B" stroke-linecap="round" stroke-linejoin="round" stroke-width="1.6" d="M41.756823 127.884894C41.756823 127.884894 36.6197164 138.535691 37.104047 144.750319M45.0699645 128.268989C45.0699645 128.268989 42.1679836 142.79266 43.6321831 147.51367M48.648247 128.683484C48.648247 128.683484 47.5402907 143.950771 51.3188699 148.404495M55.5697716 94.7045745C55.5697716 94.7045745 63.116523 73.757234 65.5693973 72.301117M59.2804645 95.1347074C59.2804645 95.1347074 67.6813989 77.2320479 69.915724 75.3482713M218.244813 96.1974734C224.165654 94.0663564 230.614056 93.9730053 236.739037 92.5240691 244.393061 90.7136968 251.728468 86.5344415 256.009791 79.9567819 259.185558 75.0777926 260.496854 69.2477394 261.474321 63.5142287 263.093826 54.0147606 264.459558 43.9432181 263.956815 34.2913564 263.55334 26.5424202 262.00028 18.162367 255.924132 12.7280585 254.853802 11.7714096 253.643375 10.8514628 253.131026 9.51263298 252.494591 7.84986702 253.146236 5.8974734 254.369471 4.60093085 255.592706 3.30359043 257.293067 2.56077128 258.999832 2.03656915 265.20887.133643617 272.169621.809441489 277.892728 3.87007979 290.197927 10.4517287 290.944837 23.019016 291.377933 35.4267287 292.088818 55.7317819 288.650471 75.8932181 277.607733 93.2589096 270.89275 103.819548 260.616135 114.402527 247.918668 117.238165 240.453572 118.905718 232.544173 116.890293 225.166337 118.730186"/>
      <path stroke="#D2A68B" stroke-linecap="round" stroke-linejoin="round" stroke-width="1.6" d="M66.7413973,136.63109 C80.7805803,136.532154 95.3265093,138.632952 109.26002,140.260612 C127.160239,142.351037 144.956386,145.413271 162.934258,146.687473 C176.450684,147.645718 190.03996,147.58508 203.54758,146.513537 C210.305793,145.977367 217.02558,145.149176 223.730157,144.148644 C230.058477,143.203963 236.482061,144.330559 242.811181,142.864867 C245.088736,142.337473 247.363089,141.464601 249.037031,139.837739 C250.398761,138.514867 251.296173,136.727633 251.541941,134.850239 C251.71566,133.528165 251.562755,132.138271 250.935927,130.96141 C250.200225,129.577101 248.890531,128.599707 247.588042,127.722846 C234.45908,118.888005 217.21611,115.542527 201.779974,119.382686"/>
      <path stroke="#D2A68B" stroke-linecap="round" stroke-linejoin="round" stroke-width="1.6" d="M216.874757,117.592739 C219.51496,112.057101 219.54458,111.136356 219.393277,104.746197 C219.277998,99.9222606 217.867435,95.3464628 215.29608,91.257367"/>
      <path stroke="#D2A68B" stroke-linecap="round" stroke-linejoin="round" stroke-width="1.6" d="M202.498945,90.2376064 C213.194245,91.1471809 224.035245,92.0503723 234.604059,90.1809574 C238.075229,89.5657979 241.646466,88.5740426 244.23063,86.1828191 C245.842931,84.6915957 247.01413,82.5493085 246.76436,80.3719149 C246.499379,78.0724468 244.734975,76.2126064 242.801655,74.9296277 C239.794002,72.9357447 236.24598,71.9296277 232.723576,71.1333511 C223.438037,69.0341489 213.865904,68.2059574 204.356212,68.6599468 C198.857259,68.9224468 194.036368,69.9939894 188.419734,69.4171277 C181.847248,68.7437234 175.406051,67.1735106 168.908016,66.039734 C152.231833,63.1282979 135.079324,63.0381383 118.35751,65.6407979 C103.822789,67.902766 84.4447615,71.5546277 73.0081549,81.1610106"/>
      <path stroke="#D2A68B" stroke-linecap="round" stroke-linejoin="round" stroke-width="1.6" d="M107.247206 80.1293617C112.742157 81.2591489 118.121029 82.8668617 123.479086 84.5080851 128.473695 86.0384043 133.920613 87.0955851 138.742305 89.0870745 140.447469 89.7907979 142.064572 90.8966489 142.943572 92.5139362 143.822572 94.1320213 143.792952 96.3205851 142.532092 97.6634043 141.953296 98.2793617 141.207187 98.7788298 140.383425 98.971117 131.677482 101.0025 114.598624 96.0548936 107.053474 91.0370745M107.683024 132.942447C113.887259 132.573032 120.060272 131.686596 126.117207 130.292713 130.001458 129.399096 138.963576 129.166117 140.703163 124.819309 141.089027 123.853883 141.100234 122.769574 140.892893 121.750691 139.326223 114.03367 129.37383 115.395638 123.627507 115.779415 117.299188 116.202287 111.844264 119.286862 105.969054 121.656543M46.8634287 118.46625C48.4741281 118.679282 50.1872975 118.546037 51.5890544 117.72742 53.3966883 116.671835 54.2252538 115.167846 53.642456 113.656676 53.0756691 112.183803 51.9124751 111.425824 50.9157948 110.307207 52.6457757 110.787527 53.8209779 110.947899 55.3300079 110.09258 56.8462429 109.234069 57.3706008 107.174761 56.8534478 105.515186 56.3362948 103.855612 54.9953795 102.567048 53.5247757 101.632739"/>
      <path fill="#000" d="M231.58712,132.649468 L82.7975571,132.649468 C77.0192128,132.649468 72.334415,127.979521 72.334415,122.221277 L72.334415,26.018617 C72.334415,20.2595745 77.0192128,15.5904255 82.7975571,15.5904255 L231.58712,15.5904255 C237.366265,15.5904255 242.050262,20.2595745 242.050262,26.018617 L242.050262,122.221277 C242.050262,127.979521 237.366265,132.649468 231.58712,132.649468"/>
      <path stroke="#FFF" stroke-width="1.6" d="M231.58712,132.649468 L82.7975571,132.649468 C77.0192128,132.649468 72.334415,127.979521 72.334415,122.221277 L72.334415,26.018617 C72.334415,20.2595745 77.0192128,15.5904255 82.7975571,15.5904255 L231.58712,15.5904255 C237.366265,15.5904255 242.050262,20.2595745 242.050262,26.018617 L242.050262,122.221277 C242.050262,127.979521 237.366265,132.649468 231.58712,132.649468 Z"/>
      <mask id="loader_cat-b" fill="#fff">
        <use xlink:href="#loader_cat-a"/>
      </mask>
      <polygon fill="#000" points="82.355 123.834 232.03 123.834 232.03 29.193 82.355 29.193" mask="url(#loader_cat-b)"/>
      <polygon stroke="#FFF" stroke-width="1.6" points="82.355 123.834 232.03 123.834 232.03 29.193 82.355 29.193" mask="url(#loader_cat-b)"/>
      <path fill="#000" d="M260.595241,132.814707 L260.595241,143.195027 C260.595241,145.230399 258.649112,146.873218 256.249875,146.873218 L58.1354429,146.873218 C55.7362052,146.873218 53.7900768,145.230399 53.7900768,143.195027 L53.7900768,132.814707 L132.155569,132.814707 L132.155569,135.280133 C132.155569,136.165771 133.005749,136.875878 134.044858,136.875878 L180.350066,136.875878 C181.379569,136.875878 182.220142,136.17375 182.220142,135.29609 L182.220142,132.814707 L260.595241,132.814707 Z" mask="url(#loader_cat-b)"/>
      <path stroke="#FFF" stroke-width="1.6" d="M260.595241 132.814707L260.595241 143.195027C260.595241 145.230399 258.649112 146.873218 256.249875 146.873218L58.1354429 146.873218C55.7362052 146.873218 53.7900768 145.230399 53.7900768 143.195027L53.7900768 132.814707 132.155569 132.814707 132.155569 135.280133C132.155569 136.165771 133.005749 136.875878 134.044858 136.875878L180.350066 136.875878C181.379569 136.875878 182.220142 136.17375 182.220142 135.29609L182.220142 132.814707 260.595241 132.814707zM158.393478 22.4730319C158.393478 23.1336702 157.855511 23.6698404 157.192659 23.6698404 156.529006 23.6698404 155.991839 23.1336702 155.991839 22.4730319 155.991839 21.8123936 156.529006 21.2762234 157.192659 21.2762234 157.855511 21.2762234 158.393478 21.8123936 158.393478 22.4730319z" mask="url(#loader_cat-b)"/>
    </g>
    <g fill="#D2A68B" opacity=".45" transform="translate(7.205 72.43)">
      <path d="M17.7072068 10.5360638C17.7288216 10.5631915 17.7512369 10.591117 17.7736522 10.6190426 18.3028134 11.2812766 19.3291139 11.0770213 19.6293189 10.2855319 20.2761604 8.57888298 21.4633708 7.07489362 22.975603 6.04723404 23.5712096 5.64111702 23.5760128 4.74510638 22.9892123 4.3262234 21.0991221 2.97702128 18.8992205 2.0618617 16.7193325 1.22010638 14.2944773.284202128 10.8681385-.275904255 12.8046604 3.22117021 14.2248298 5.78553191 15.8971713 8.22941489 17.7072068 10.5360638M6.41702022 40.0472074C5.42033989 40.3280585 4.43886995 40.655984 3.48942186 41.0788564 2.71769508 41.4235372-.358004372 42.5525266.943684153 43.6966755 2.62723333 45.1759309 4.71665956 46.1788564 6.91496011 46.6144947 8.03652568 46.8371011 9.25255574 46.9591755 10.3949355 46.8243351 11.6533945 46.6767287 10.6062798 44.7841755 10.5006077 43.9121011 10.3637142 42.7783245 10.4013399 41.6301862 10.600676 40.505984 10.773594 39.5341755 10.6278945 39.0386968 9.49992459 39.294016 8.47042186 39.5261968 7.4353153 39.7615691 6.41702022 40.0472074"/>
    </g>
  </g>
</svg>
